<?xml version="1.0"?>
<svg xmlns="http://www.w3.org/2000/svg" height="15px" viewBox="0 0 464 464" width="25px" class=""><g><path d="m72 384h-16v-16h16v-16h-16v-16h16v-16h-16v-16h72v-80h-88v176h32zm-16-144h56v16h-56zm0 32h56v16h-56zm0 0" data-original="#000000" class="active-path" data-old_color="#000000" fill="#374957"/><path d="m288 400h88v-80h-88zm16-64h56v16h-56zm0 32h56v16h-56zm0 0" data-original="#000000" class="active-path" data-old_color="#000000" fill="#374957"/><path d="m232 282.511719 83.726562-113.632813c13.265626-17.992187 20.273438-39.328125 20.273438-61.6875v-3.191406c0-57.34375-46.65625-104-104-104s-104 46.65625-104 104v3.191406c0 22.359375 7.007812 43.695313 20.273438 61.6875zm0-266.511719c48.519531 0 88 39.480469 88 88 0 20.246094-7.0625 40.023438-19.878906 55.6875l-12.378906-10.144531c8.785156-10.726563 14.210937-23.839844 15.753906-37.542969h-15.496094v-16h15.527344c-3.703125-33.320312-30.207032-59.824219-63.527344-63.527344v15.527344h-16v-15.496094c-13.710938 1.542969-26.816406 6.96875-37.542969 15.753906l-10.144531-12.378906c15.664062-12.816406 35.441406-19.878906 55.6875-19.878906zm24 80v16h-32v-48h16v32zm-92.121094-47.6875 12.378906 10.144531c-8.785156 10.726563-14.210937 23.839844-15.753906 37.542969h15.496094v16h-15.527344c3.703125 33.320312 30.207032 59.824219 63.527344 63.527344v-15.527344h16v15.496094c13.710938-1.542969 26.816406-6.96875 37.542969-15.753906l10.144531 12.378906c-15.664062 12.816406-35.441406 19.878906-55.6875 19.878906-48.519531 0-88-39.480469-88-88 0-20.246094 7.0625-40.023438 19.878906-55.6875zm0 0" data-original="#000000" class="active-path" data-old_color="#000000" fill="#374957"/><path d="m440 256v160h-184v-16h16v-96h48v-48h-48.59375l-39.40625 53.488281-39.40625-53.488281h-48.59375v48h48v96h16v16h-184v-160h-24v208h464v-208zm0 0" data-original="#000000" class="active-path" data-old_color="#000000" fill="#374957"/><path d="m88 400h88v-80h-88zm16-64h56v16h-56zm0 32h56v16h-56zm0 0" data-original="#000000" class="active-path" data-old_color="#000000" fill="#374957"/><path d="m392 384v16h32v-176h-88v80h72v16h-16v16h16v16h-16v16h16v16zm-40-144h56v16h-56zm0 48v-16h56v16zm0 0" data-original="#000000" class="active-path" data-old_color="#000000" fill="#FFFFFF"/></g> </svg>
